<mxfile host="Electron" modified="2024-06-28T13:07:45.960Z" agent="Mozilla/5.0 (X11; Linux x86_64) AppleWebKit/537.36 (KHTML, like Gecko) draw.io/24.5.3 Chrome/124.0.6367.207 Electron/30.0.6 Safari/537.36" etag="cVk_bAjC23bVUKJoY5w1" version="24.5.3" type="device">
  <diagram name="Page-1" id="y-7d6MHpmnTL7HZYriRI">
    <mxGraphModel dx="2265" dy="2426" grid="1" gridSize="10" guides="1" tooltips="1" connect="1" arrows="1" fold="1" page="1" pageScale="1" pageWidth="850" pageHeight="1100" math="0" shadow="0">
      <root>
        <mxCell id="0" />
        <mxCell id="1" parent="0" />
        <mxCell id="Eo4oD8oEYdF83mtFnDHt-18" style="edgeStyle=orthogonalEdgeStyle;rounded=0;orthogonalLoop=1;jettySize=auto;html=1;exitX=0.5;exitY=0;exitDx=0;exitDy=0;endArrow=block;endFill=0;fontFamily=Titillium Web;strokeWidth=2;" parent="1" source="Eo4oD8oEYdF83mtFnDHt-19" target="Eo4oD8oEYdF83mtFnDHt-24" edge="1">
          <mxGeometry relative="1" as="geometry" />
        </mxCell>
        <mxCell id="Eo4oD8oEYdF83mtFnDHt-19" value="&lt;font style=&quot;font-size: 20px;&quot;&gt;Activity&lt;/font&gt;" style="swimlane;fontStyle=1;align=center;verticalAlign=top;childLayout=stackLayout;horizontal=1;startSize=40;horizontalStack=0;resizeParent=1;resizeParentMax=0;resizeLast=0;collapsible=1;marginBottom=0;whiteSpace=wrap;html=1;fontFamily=Titillium Web;strokeWidth=2;" parent="1" vertex="1" collapsed="1">
          <mxGeometry x="80" y="70" width="90" height="40" as="geometry">
            <mxRectangle x="340" y="40" width="170" height="176" as="alternateBounds" />
          </mxGeometry>
        </mxCell>
        <mxCell id="Eo4oD8oEYdF83mtFnDHt-20" value="&lt;div style=&quot;font-size: 16px;&quot;&gt;&lt;font style=&quot;font-size: 16px;&quot;&gt;+ datetime: Datetime&lt;/font&gt;&lt;/div&gt;&lt;div style=&quot;font-size: 16px;&quot;&gt;&lt;font style=&quot;font-size: 16px;&quot;&gt;+ method: str&lt;/font&gt;&lt;/div&gt;&lt;div style=&quot;font-size: 16px;&quot;&gt;&lt;font style=&quot;font-size: 16px;&quot;&gt;+ location: str&lt;/font&gt;&lt;/div&gt;&lt;div style=&quot;font-size: 16px;&quot;&gt;&lt;font style=&quot;font-size: 16px;&quot;&gt;+ steps: &lt;b style=&quot;&quot;&gt;ActivityStep&lt;/b&gt;&lt;/font&gt;&lt;br&gt;&lt;/div&gt;" style="text;strokeColor=none;fillColor=none;align=left;verticalAlign=top;spacingLeft=4;spacingRight=4;overflow=hidden;rotatable=0;points=[[0,0.5],[1,0.5]];portConstraint=eastwest;whiteSpace=wrap;html=1;fontFamily=Titillium Web;" parent="Eo4oD8oEYdF83mtFnDHt-19" vertex="1">
          <mxGeometry y="40" width="170" height="94" as="geometry" />
        </mxCell>
        <mxCell id="Eo4oD8oEYdF83mtFnDHt-21" value="" style="line;strokeWidth=2;fillColor=none;align=left;verticalAlign=middle;spacingTop=-1;spacingLeft=3;spacingRight=3;rotatable=0;labelPosition=right;points=[];portConstraint=eastwest;strokeColor=inherit;fontFamily=Titillium Web;" parent="Eo4oD8oEYdF83mtFnDHt-19" vertex="1">
          <mxGeometry y="134" width="170" height="8" as="geometry" />
        </mxCell>
        <mxCell id="Eo4oD8oEYdF83mtFnDHt-22" value="&lt;font style=&quot;font-size: 16px;&quot;&gt;+ normalize()&lt;/font&gt;" style="text;strokeColor=none;fillColor=none;align=left;verticalAlign=top;spacingLeft=4;spacingRight=4;overflow=hidden;rotatable=0;points=[[0,0.5],[1,0.5]];portConstraint=eastwest;whiteSpace=wrap;html=1;fontFamily=Titillium Web;" parent="Eo4oD8oEYdF83mtFnDHt-19" vertex="1">
          <mxGeometry y="142" width="170" height="34" as="geometry" />
        </mxCell>
        <mxCell id="Eo4oD8oEYdF83mtFnDHt-23" style="edgeStyle=orthogonalEdgeStyle;rounded=0;orthogonalLoop=1;jettySize=auto;html=1;entryX=0.5;entryY=1;entryDx=0;entryDy=0;endArrow=block;endFill=0;fontFamily=Titillium Web;exitX=0.5;exitY=0;exitDx=0;exitDy=0;strokeWidth=2;" parent="1" source="Eo4oD8oEYdF83mtFnDHt-28" target="Eo4oD8oEYdF83mtFnDHt-19" edge="1">
          <mxGeometry relative="1" as="geometry">
            <mxPoint x="185" y="350" as="sourcePoint" />
          </mxGeometry>
        </mxCell>
        <mxCell id="Eo4oD8oEYdF83mtFnDHt-24" value="&lt;font style=&quot;font-size: 20px;&quot;&gt;BaseSection&lt;/font&gt;" style="swimlane;fontStyle=1;align=center;verticalAlign=top;childLayout=stackLayout;horizontal=1;startSize=40;horizontalStack=0;resizeParent=1;resizeParentMax=0;resizeLast=0;collapsible=1;marginBottom=0;whiteSpace=wrap;html=1;fontFamily=Titillium Web;strokeWidth=2;" parent="1" vertex="1" collapsed="1">
          <mxGeometry x="65" width="120" height="40" as="geometry">
            <mxRectangle x="160" width="160" height="176" as="alternateBounds" />
          </mxGeometry>
        </mxCell>
        <mxCell id="Eo4oD8oEYdF83mtFnDHt-25" value="&lt;div style=&quot;font-size: 16px;&quot;&gt;&lt;font style=&quot;font-size: 16px;&quot;&gt;+ name: str&lt;/font&gt;&lt;/div&gt;&lt;div style=&quot;font-size: 16px;&quot;&gt;&lt;font style=&quot;font-size: 16px;&quot;&gt;+ datetime: Datetime&lt;/font&gt;&lt;/div&gt;&lt;div style=&quot;font-size: 16px;&quot;&gt;&lt;font style=&quot;font-size: 16px;&quot;&gt;+ lab_id: str&lt;/font&gt;&lt;/div&gt;&lt;div style=&quot;font-size: 16px;&quot;&gt;&lt;font style=&quot;font-size: 16px;&quot;&gt;+ description: str&lt;/font&gt;&lt;br&gt;&lt;/div&gt;" style="text;strokeColor=none;fillColor=none;align=left;verticalAlign=top;spacingLeft=4;spacingRight=4;overflow=hidden;rotatable=0;points=[[0,0.5],[1,0.5]];portConstraint=eastwest;whiteSpace=wrap;html=1;fontFamily=Titillium Web;" parent="Eo4oD8oEYdF83mtFnDHt-24" vertex="1">
          <mxGeometry y="40" width="160" height="94" as="geometry" />
        </mxCell>
        <mxCell id="Eo4oD8oEYdF83mtFnDHt-26" value="" style="line;strokeWidth=2;fillColor=none;align=left;verticalAlign=middle;spacingTop=-1;spacingLeft=3;spacingRight=3;rotatable=0;labelPosition=right;points=[];portConstraint=eastwest;strokeColor=inherit;fontFamily=Titillium Web;" parent="Eo4oD8oEYdF83mtFnDHt-24" vertex="1">
          <mxGeometry y="134" width="160" height="8" as="geometry" />
        </mxCell>
        <mxCell id="Eo4oD8oEYdF83mtFnDHt-27" value="&lt;font style=&quot;font-size: 16px;&quot;&gt;+ normalize()&lt;/font&gt;" style="text;strokeColor=none;fillColor=none;align=left;verticalAlign=top;spacingLeft=4;spacingRight=4;overflow=hidden;rotatable=0;points=[[0,0.5],[1,0.5]];portConstraint=eastwest;whiteSpace=wrap;html=1;fontFamily=Titillium Web;" parent="Eo4oD8oEYdF83mtFnDHt-24" vertex="1">
          <mxGeometry y="142" width="160" height="34" as="geometry" />
        </mxCell>
        <mxCell id="Eo4oD8oEYdF83mtFnDHt-28" value="&lt;font style=&quot;font-size: 20px;&quot;&gt;BaseSimulation&lt;/font&gt;" style="swimlane;fontStyle=1;align=center;verticalAlign=top;childLayout=stackLayout;horizontal=1;startSize=40;horizontalStack=0;resizeParent=1;resizeParentMax=0;resizeLast=0;collapsible=1;marginBottom=0;whiteSpace=wrap;html=1;fontFamily=Titillium Web;strokeWidth=2;" parent="1" vertex="1" collapsed="1">
          <mxGeometry x="50" y="140" width="150" height="40" as="geometry">
            <mxRectangle x="40" y="160" width="200" height="206" as="alternateBounds" />
          </mxGeometry>
        </mxCell>
        <mxCell id="Eo4oD8oEYdF83mtFnDHt-29" value="&lt;div style=&quot;font-size: 16px;&quot;&gt;&lt;font style=&quot;font-size: 16px;&quot;&gt;+ datetime_end: Datetime&lt;/font&gt;&lt;/div&gt;&lt;div style=&quot;font-size: 16px;&quot;&gt;&lt;font style=&quot;font-size: 16px;&quot;&gt;+ cpu1_start: np.float64, s&lt;/font&gt;&lt;/div&gt;&lt;div style=&quot;font-size: 16px;&quot;&gt;&lt;font style=&quot;font-size: 16px;&quot;&gt;+ cpu1_end: np.float64, s&lt;/font&gt;&lt;/div&gt;&lt;div style=&quot;font-size: 16px;&quot;&gt;&lt;font style=&quot;font-size: 16px;&quot;&gt;+ wall_start: np.float64, s&lt;/font&gt;&lt;/div&gt;&lt;div style=&quot;font-size: 16px;&quot;&gt;&lt;font style=&quot;font-size: 16px;&quot;&gt;+ wall_end: np.float64, s&lt;/font&gt;&lt;/div&gt;&lt;div style=&quot;font-size: 16px;&quot;&gt;&lt;font style=&quot;font-size: 16px;&quot;&gt;+ program: &lt;b style=&quot;&quot;&gt;Program&lt;/b&gt;&lt;/font&gt;&lt;br&gt;&lt;/div&gt;" style="text;strokeColor=none;fillColor=none;align=left;verticalAlign=top;spacingLeft=4;spacingRight=4;overflow=hidden;rotatable=0;points=[[0,0.5],[1,0.5]];portConstraint=eastwest;whiteSpace=wrap;html=1;fontFamily=Titillium Web;" parent="Eo4oD8oEYdF83mtFnDHt-28" vertex="1">
          <mxGeometry y="40" width="200" height="124" as="geometry" />
        </mxCell>
        <mxCell id="Eo4oD8oEYdF83mtFnDHt-30" value="" style="line;strokeWidth=2;fillColor=none;align=left;verticalAlign=middle;spacingTop=-1;spacingLeft=3;spacingRight=3;rotatable=0;labelPosition=right;points=[];portConstraint=eastwest;strokeColor=inherit;fontFamily=Titillium Web;" parent="Eo4oD8oEYdF83mtFnDHt-28" vertex="1">
          <mxGeometry y="164" width="200" height="8" as="geometry" />
        </mxCell>
        <mxCell id="Eo4oD8oEYdF83mtFnDHt-31" value="&lt;font style=&quot;font-size: 16px;&quot;&gt;+ normalize()&lt;/font&gt;" style="text;strokeColor=none;fillColor=none;align=left;verticalAlign=top;spacingLeft=4;spacingRight=4;overflow=hidden;rotatable=0;points=[[0,0.5],[1,0.5]];portConstraint=eastwest;whiteSpace=wrap;html=1;fontFamily=Titillium Web;" parent="Eo4oD8oEYdF83mtFnDHt-28" vertex="1">
          <mxGeometry y="172" width="200" height="34" as="geometry" />
        </mxCell>
        <mxCell id="Eo4oD8oEYdF83mtFnDHt-34" value="" style="endArrow=none;html=1;rounded=0;strokeWidth=2;endFill=0;startArrow=block;startFill=0;" parent="1" edge="1">
          <mxGeometry width="50" height="50" relative="1" as="geometry">
            <mxPoint x="80" y="390" as="sourcePoint" />
            <mxPoint x="150" y="390" as="targetPoint" />
          </mxGeometry>
        </mxCell>
        <mxCell id="Eo4oD8oEYdF83mtFnDHt-35" value="&lt;font style=&quot;font-size: 14px;&quot; face=&quot;Titillium Web&quot;&gt;inheriting from&lt;/font&gt;" style="text;html=1;align=center;verticalAlign=middle;whiteSpace=wrap;rounded=0;" parent="1" vertex="1">
          <mxGeometry x="150" y="380" width="90" height="20" as="geometry" />
        </mxCell>
        <mxCell id="Eo4oD8oEYdF83mtFnDHt-36" value="" style="endArrow=none;html=1;rounded=0;strokeWidth=2;endFill=0;startArrow=diamond;startFill=1;" parent="1" edge="1">
          <mxGeometry width="50" height="50" relative="1" as="geometry">
            <mxPoint x="80" y="410" as="sourcePoint" />
            <mxPoint x="150" y="410" as="targetPoint" />
          </mxGeometry>
        </mxCell>
        <mxCell id="Eo4oD8oEYdF83mtFnDHt-37" value="&lt;font style=&quot;font-size: 14px;&quot; face=&quot;Titillium Web&quot;&gt;contained in&lt;/font&gt;" style="text;html=1;align=center;verticalAlign=middle;whiteSpace=wrap;rounded=0;" parent="1" vertex="1">
          <mxGeometry x="150" y="400" width="80" height="20" as="geometry" />
        </mxCell>
        <mxCell id="O3gvgiHZ3PhE2__OoeL2-5" style="edgeStyle=orthogonalEdgeStyle;rounded=0;orthogonalLoop=1;jettySize=auto;html=1;strokeWidth=2;endArrow=block;endFill=0;" parent="1" source="O3gvgiHZ3PhE2__OoeL2-1" target="Eo4oD8oEYdF83mtFnDHt-28" edge="1">
          <mxGeometry relative="1" as="geometry" />
        </mxCell>
        <mxCell id="O3gvgiHZ3PhE2__OoeL2-1" value="&lt;font color=&quot;#000000&quot; style=&quot;font-size: 20px;&quot;&gt;Simulation&lt;/font&gt;" style="swimlane;fontStyle=1;align=center;verticalAlign=top;childLayout=stackLayout;horizontal=1;startSize=40;horizontalStack=0;resizeParent=1;resizeParentMax=0;resizeLast=0;collapsible=1;marginBottom=0;whiteSpace=wrap;html=1;fillColor=none;fontColor=#ffffff;fontFamily=Titillium Web;strokeWidth=2;" parent="1" vertex="1" collapsed="1">
          <mxGeometry x="65" y="291" width="120" height="40" as="geometry">
            <mxRectangle x="10" y="220" width="230" height="182" as="alternateBounds" />
          </mxGeometry>
        </mxCell>
        <mxCell id="O3gvgiHZ3PhE2__OoeL2-2" value="&lt;font style=&quot;font-size: 16px;&quot;&gt;&lt;span style=&quot;color: rgb(0, 0, 0); font-family: &amp;quot;Titillium Web&amp;quot;; font-style: normal; font-variant-ligatures: normal; font-variant-caps: normal; font-weight: 400; letter-spacing: normal; orphans: 2; text-align: left; text-indent: 0px; text-transform: none; widows: 2; word-spacing: 0px; -webkit-text-stroke-width: 0px; background-color: rgb(251, 251, 251); text-decoration-thickness: initial; text-decoration-style: initial; text-decoration-color: initial; float: none; display: inline !important;&quot;&gt;+ model_system:&amp;nbsp;&lt;/span&gt;&lt;span style=&quot;border-color: var(--border-color); color: rgb(0, 0, 0); font-family: &amp;quot;Titillium Web&amp;quot;; font-style: normal; font-variant-ligatures: normal; font-variant-caps: normal; letter-spacing: normal; orphans: 2; text-align: left; text-indent: 0px; text-transform: none; widows: 2; word-spacing: 0px; -webkit-text-stroke-width: 0px; background-color: rgb(251, 251, 251); text-decoration-thickness: initial; text-decoration-style: initial; text-decoration-color: initial;&quot;&gt;&lt;b&gt;ModelSystem&lt;/b&gt;&lt;br&gt;+ model_method:&lt;/span&gt;&lt;/font&gt;&lt;span style=&quot;border-color: var(--border-color); color: rgb(0, 0, 0); font-family: &amp;quot;Titillium Web&amp;quot;; font-style: normal; font-variant-ligatures: normal; font-variant-caps: normal; letter-spacing: normal; orphans: 2; text-align: left; text-indent: 0px; text-transform: none; widows: 2; word-spacing: 0px; -webkit-text-stroke-width: 0px; background-color: rgb(251, 251, 251); text-decoration-thickness: initial; text-decoration-style: initial; text-decoration-color: initial; font-size: 16px;&quot;&gt;&lt;font style=&quot;font-size: 16px;&quot;&gt;&lt;b style=&quot;&quot;&gt;&amp;nbsp;&lt;/b&gt;&lt;span style=&quot;border-color: var(--border-color);&quot;&gt;&lt;b&gt;ModelMethod&lt;/b&gt;&lt;br&gt;+ outputs:&lt;/span&gt;&lt;/font&gt;&lt;b style=&quot;font-weight: bold; border-color: var(--border-color);&quot;&gt;&lt;font style=&quot;font-size: 16px;&quot;&gt;&amp;nbsp;&lt;/font&gt;&lt;b style=&quot;border-color: var(--border-color);&quot;&gt;&lt;font style=&quot;font-size: 16px;&quot;&gt;Outputs&lt;/font&gt;&lt;br style=&quot;border-color: var(--border-color);&quot;&gt;&lt;/b&gt;&lt;/b&gt;&lt;/span&gt;" style="text;strokeColor=none;fillColor=none;align=left;verticalAlign=top;spacingLeft=4;spacingRight=4;overflow=hidden;rotatable=0;points=[[0,0.5],[1,0.5]];portConstraint=eastwest;whiteSpace=wrap;html=1;fontFamily=Titillium Web;" parent="O3gvgiHZ3PhE2__OoeL2-1" vertex="1">
          <mxGeometry y="40" width="230" height="74" as="geometry" />
        </mxCell>
        <mxCell id="O3gvgiHZ3PhE2__OoeL2-3" value="" style="line;strokeWidth=1;fillColor=none;align=left;verticalAlign=middle;spacingTop=-1;spacingLeft=3;spacingRight=3;rotatable=0;labelPosition=right;points=[];portConstraint=eastwest;strokeColor=inherit;fontFamily=Titillium Web;" parent="O3gvgiHZ3PhE2__OoeL2-1" vertex="1">
          <mxGeometry y="114" width="230" height="8" as="geometry" />
        </mxCell>
        <mxCell id="O3gvgiHZ3PhE2__OoeL2-4" value="&lt;div style=&quot;font-size: 16px;&quot;&gt;&lt;font style=&quot;font-size: 16px;&quot;&gt;- set_system_branch_depth()&lt;br&gt;&lt;/font&gt;&lt;/div&gt;&lt;div style=&quot;font-size: 16px;&quot;&gt;&lt;font style=&quot;font-size: 16px;&quot;&gt;+ normalize()&lt;/font&gt;&lt;/div&gt;" style="text;strokeColor=none;fillColor=none;align=left;verticalAlign=top;spacingLeft=4;spacingRight=4;overflow=hidden;rotatable=0;points=[[0,0.5],[1,0.5]];portConstraint=eastwest;whiteSpace=wrap;html=1;fontFamily=Titillium Web;" parent="O3gvgiHZ3PhE2__OoeL2-1" vertex="1">
          <mxGeometry y="122" width="230" height="60" as="geometry" />
        </mxCell>
        <mxCell id="O3gvgiHZ3PhE2__OoeL2-6" value="&lt;font style=&quot;font-size: 20px;&quot;&gt;BaseModelMethod&lt;/font&gt;" style="swimlane;fontStyle=1;align=center;verticalAlign=top;childLayout=stackLayout;horizontal=1;startSize=40;horizontalStack=0;resizeParent=1;resizeParentMax=0;resizeLast=0;collapsible=1;marginBottom=0;whiteSpace=wrap;html=1;fillColor=#009999;fontColor=#ffffff;fontFamily=Titillium Web;strokeWidth=2;" parent="1" vertex="1">
          <mxGeometry x="290" y="10" width="280" height="200" as="geometry">
            <mxRectangle x="495" y="560" width="120" height="40" as="alternateBounds" />
          </mxGeometry>
        </mxCell>
        <mxCell id="O3gvgiHZ3PhE2__OoeL2-7" value="&lt;div&gt;&lt;font style=&quot;font-size: 16px;&quot;&gt;&lt;span style=&quot;color: rgb(0, 0, 0); font-family: &amp;quot;Titillium Web&amp;quot;; font-style: normal; font-variant-ligatures: normal; font-variant-caps: normal; font-weight: 400; letter-spacing: normal; orphans: 2; text-align: left; text-indent: 0px; text-transform: none; widows: 2; word-spacing: 0px; -webkit-text-stroke-width: 0px; background-color: rgb(251, 251, 251); text-decoration-thickness: initial; text-decoration-style: initial; text-decoration-color: initial; float: none; display: inline !important;&quot;&gt;normalizer_level = 1&lt;/span&gt;&lt;/font&gt;&lt;/div&gt;&lt;font style=&quot;font-size: 16px;&quot;&gt;&lt;span style=&quot;color: rgb(0, 0, 0); font-family: &amp;quot;Titillium Web&amp;quot;; font-style: normal; font-variant-ligatures: normal; font-variant-caps: normal; font-weight: 400; letter-spacing: normal; orphans: 2; text-align: left; text-indent: 0px; text-transform: none; widows: 2; word-spacing: 0px; -webkit-text-stroke-width: 0px; background-color: rgb(251, 251, 251); text-decoration-thickness: initial; text-decoration-style: initial; text-decoration-color: initial; float: none; display: inline !important;&quot;&gt;+ name: str&lt;/span&gt;&lt;/font&gt;&lt;div&gt;&lt;font style=&quot;font-size: 16px;&quot;&gt;&lt;span style=&quot;color: rgb(0, 0, 0); font-family: &amp;quot;Titillium Web&amp;quot;; font-style: normal; font-variant-ligatures: normal; font-variant-caps: normal; font-weight: 400; letter-spacing: normal; orphans: 2; text-align: left; text-indent: 0px; text-transform: none; widows: 2; word-spacing: 0px; -webkit-text-stroke-width: 0px; background-color: rgb(251, 251, 251); text-decoration-thickness: initial; text-decoration-style: initial; text-decoration-color: initial; float: none; display: inline !important;&quot;&gt;+ type: str&lt;/span&gt;&lt;/font&gt;&lt;/div&gt;&lt;div&gt;&lt;span style=&quot;font-size: 16px;&quot;&gt;+ external_reference: URL&lt;/span&gt;&lt;/div&gt;&lt;div&gt;&lt;span style=&quot;font-size: 16px;&quot;&gt;+ numerical_settings: &lt;b&gt;NumericalSettings&lt;/b&gt;&lt;/span&gt;&lt;/div&gt;" style="text;strokeColor=none;fillColor=none;align=left;verticalAlign=top;spacingLeft=4;spacingRight=4;overflow=hidden;rotatable=0;points=[[0,0.5],[1,0.5]];portConstraint=eastwest;whiteSpace=wrap;html=1;fontFamily=Titillium Web;" parent="O3gvgiHZ3PhE2__OoeL2-6" vertex="1">
          <mxGeometry y="40" width="280" height="110" as="geometry" />
        </mxCell>
        <mxCell id="O3gvgiHZ3PhE2__OoeL2-8" value="" style="line;strokeWidth=1;fillColor=none;align=left;verticalAlign=middle;spacingTop=-1;spacingLeft=3;spacingRight=3;rotatable=0;labelPosition=right;points=[];portConstraint=eastwest;strokeColor=inherit;fontFamily=Titillium Web;" parent="O3gvgiHZ3PhE2__OoeL2-6" vertex="1">
          <mxGeometry y="150" width="280" height="8" as="geometry" />
        </mxCell>
        <mxCell id="O3gvgiHZ3PhE2__OoeL2-9" value="&lt;div style=&quot;font-size: 16px;&quot;&gt;&lt;span style=&quot;background-color: initial;&quot;&gt;+ normalize()&lt;/span&gt;&lt;br&gt;&lt;/div&gt;" style="text;strokeColor=none;fillColor=none;align=left;verticalAlign=top;spacingLeft=4;spacingRight=4;overflow=hidden;rotatable=0;points=[[0,0.5],[1,0.5]];portConstraint=eastwest;whiteSpace=wrap;html=1;fontFamily=Titillium Web;" parent="O3gvgiHZ3PhE2__OoeL2-6" vertex="1">
          <mxGeometry y="158" width="280" height="42" as="geometry" />
        </mxCell>
        <mxCell id="O3gvgiHZ3PhE2__OoeL2-15" style="edgeStyle=orthogonalEdgeStyle;rounded=0;orthogonalLoop=1;jettySize=auto;html=1;exitX=0.5;exitY=0;exitDx=0;exitDy=0;strokeWidth=2;endArrow=block;endFill=0;" parent="1" source="O3gvgiHZ3PhE2__OoeL2-10" target="O3gvgiHZ3PhE2__OoeL2-6" edge="1">
          <mxGeometry relative="1" as="geometry" />
        </mxCell>
        <mxCell id="O3gvgiHZ3PhE2__OoeL2-16" value="model_method" style="edgeStyle=orthogonalEdgeStyle;rounded=0;orthogonalLoop=1;jettySize=auto;html=1;strokeWidth=2;endArrow=diamond;endFill=1;" parent="1" source="O3gvgiHZ3PhE2__OoeL2-10" target="O3gvgiHZ3PhE2__OoeL2-1" edge="1">
          <mxGeometry relative="1" as="geometry" />
        </mxCell>
        <mxCell id="O3gvgiHZ3PhE2__OoeL2-10" value="&lt;font style=&quot;font-size: 20px;&quot;&gt;ModelMethod&lt;/font&gt;" style="swimlane;fontStyle=1;align=center;verticalAlign=top;childLayout=stackLayout;horizontal=1;startSize=40;horizontalStack=0;resizeParent=1;resizeParentMax=0;resizeLast=0;collapsible=1;marginBottom=0;whiteSpace=wrap;html=1;fillColor=#009999;fontColor=#ffffff;fontFamily=Titillium Web;strokeWidth=2;" parent="1" vertex="1" collapsed="1">
          <mxGeometry x="360" y="291" width="140" height="40" as="geometry">
            <mxRectangle x="350" y="251" width="245" height="120" as="alternateBounds" />
          </mxGeometry>
        </mxCell>
        <mxCell id="O3gvgiHZ3PhE2__OoeL2-11" value="&lt;font style=&quot;font-size: 16px;&quot;&gt;&lt;span style=&quot;color: rgb(0, 0, 0); font-family: &amp;quot;Titillium Web&amp;quot;; font-style: normal; font-variant-ligatures: normal; font-variant-caps: normal; font-weight: 400; letter-spacing: normal; orphans: 2; text-align: left; text-indent: 0px; text-transform: none; widows: 2; word-spacing: 0px; -webkit-text-stroke-width: 0px; background-color: rgb(251, 251, 251); text-decoration-thickness: initial; text-decoration-style: initial; text-decoration-color: initial; float: none; display: inline !important;&quot;&gt;+ contributions: &lt;/span&gt;&lt;span style=&quot;color: rgb(0, 0, 0); font-family: &amp;quot;Titillium Web&amp;quot;; font-style: normal; font-variant-ligatures: normal; font-variant-caps: normal; letter-spacing: normal; orphans: 2; text-align: left; text-indent: 0px; text-transform: none; widows: 2; word-spacing: 0px; -webkit-text-stroke-width: 0px; background-color: rgb(251, 251, 251); text-decoration-thickness: initial; text-decoration-style: initial; text-decoration-color: initial; float: none; display: inline !important;&quot;&gt;&lt;b&gt;BaseModelMethod&lt;/b&gt;&lt;/span&gt;&lt;/font&gt;&lt;span style=&quot;border-color: var(--border-color); color: rgb(0, 0, 0); font-family: &amp;quot;Titillium Web&amp;quot;; font-style: normal; font-variant-ligatures: normal; font-variant-caps: normal; letter-spacing: normal; orphans: 2; text-align: left; text-indent: 0px; text-transform: none; widows: 2; word-spacing: 0px; -webkit-text-stroke-width: 0px; background-color: rgb(251, 251, 251); text-decoration-thickness: initial; text-decoration-style: initial; text-decoration-color: initial; font-size: 16px;&quot;&gt;&lt;b style=&quot;font-weight: bold; border-color: var(--border-color);&quot;&gt;&lt;b style=&quot;border-color: var(--border-color);&quot;&gt;&lt;br style=&quot;border-color: var(--border-color);&quot;&gt;&lt;/b&gt;&lt;/b&gt;&lt;/span&gt;" style="text;strokeColor=none;fillColor=none;align=left;verticalAlign=top;spacingLeft=4;spacingRight=4;overflow=hidden;rotatable=0;points=[[0,0.5],[1,0.5]];portConstraint=eastwest;whiteSpace=wrap;html=1;fontFamily=Titillium Web;" parent="O3gvgiHZ3PhE2__OoeL2-10" vertex="1">
          <mxGeometry y="40" width="245" height="30" as="geometry" />
        </mxCell>
        <mxCell id="O3gvgiHZ3PhE2__OoeL2-12" value="" style="line;strokeWidth=1;fillColor=none;align=left;verticalAlign=middle;spacingTop=-1;spacingLeft=3;spacingRight=3;rotatable=0;labelPosition=right;points=[];portConstraint=eastwest;strokeColor=inherit;fontFamily=Titillium Web;" parent="O3gvgiHZ3PhE2__OoeL2-10" vertex="1">
          <mxGeometry y="70" width="245" height="8" as="geometry" />
        </mxCell>
        <mxCell id="O3gvgiHZ3PhE2__OoeL2-13" value="&lt;div style=&quot;font-size: 16px;&quot;&gt;&lt;span style=&quot;background-color: initial;&quot;&gt;+ normalize()&lt;/span&gt;&lt;br&gt;&lt;/div&gt;" style="text;strokeColor=none;fillColor=none;align=left;verticalAlign=top;spacingLeft=4;spacingRight=4;overflow=hidden;rotatable=0;points=[[0,0.5],[1,0.5]];portConstraint=eastwest;whiteSpace=wrap;html=1;fontFamily=Titillium Web;" parent="O3gvgiHZ3PhE2__OoeL2-10" vertex="1">
          <mxGeometry y="78" width="245" height="42" as="geometry" />
        </mxCell>
        <mxCell id="O3gvgiHZ3PhE2__OoeL2-18" value="&lt;font face=&quot;Titillium Web&quot;&gt;contributions&lt;/font&gt;" style="edgeStyle=orthogonalEdgeStyle;rounded=0;orthogonalLoop=1;jettySize=auto;html=1;exitX=1;exitY=0.5;exitDx=0;exitDy=0;entryX=1;entryY=0.5;entryDx=0;entryDy=0;strokeWidth=2;endArrow=diamond;endFill=1;" parent="1" source="O3gvgiHZ3PhE2__OoeL2-11" target="O3gvgiHZ3PhE2__OoeL2-9" edge="1">
          <mxGeometry relative="1" as="geometry">
            <Array as="points">
              <mxPoint x="640" y="306" />
              <mxPoint x="640" y="179" />
            </Array>
          </mxGeometry>
        </mxCell>
        <mxCell id="O3gvgiHZ3PhE2__OoeL2-23" value="&lt;font face=&quot;Titillium Web&quot;&gt;numerical_settings&lt;/font&gt;" style="edgeStyle=orthogonalEdgeStyle;rounded=0;orthogonalLoop=1;jettySize=auto;html=1;strokeWidth=2;endArrow=diamond;endFill=1;" parent="1" source="O3gvgiHZ3PhE2__OoeL2-19" target="O3gvgiHZ3PhE2__OoeL2-6" edge="1">
          <mxGeometry relative="1" as="geometry" />
        </mxCell>
        <mxCell id="O3gvgiHZ3PhE2__OoeL2-19" value="&lt;font style=&quot;font-size: 20px;&quot;&gt;NumericalSettings&lt;/font&gt;" style="swimlane;fontStyle=1;align=center;verticalAlign=top;childLayout=stackLayout;horizontal=1;startSize=40;horizontalStack=0;resizeParent=1;resizeParentMax=0;resizeLast=0;collapsible=1;marginBottom=0;whiteSpace=wrap;html=1;fillColor=#009999;fontColor=#ffffff;fontFamily=Titillium Web;strokeWidth=2;" parent="1" vertex="1">
          <mxGeometry x="925" y="50" width="200" height="120" as="geometry">
            <mxRectangle x="495" y="560" width="120" height="40" as="alternateBounds" />
          </mxGeometry>
        </mxCell>
        <mxCell id="O3gvgiHZ3PhE2__OoeL2-20" value="&lt;span style=&quot;font-size: 16px;&quot;&gt;+ name: str&lt;/span&gt;" style="text;strokeColor=none;fillColor=none;align=left;verticalAlign=top;spacingLeft=4;spacingRight=4;overflow=hidden;rotatable=0;points=[[0,0.5],[1,0.5]];portConstraint=eastwest;whiteSpace=wrap;html=1;fontFamily=Titillium Web;" parent="O3gvgiHZ3PhE2__OoeL2-19" vertex="1">
          <mxGeometry y="40" width="200" height="30" as="geometry" />
        </mxCell>
        <mxCell id="O3gvgiHZ3PhE2__OoeL2-21" value="" style="line;strokeWidth=1;fillColor=none;align=left;verticalAlign=middle;spacingTop=-1;spacingLeft=3;spacingRight=3;rotatable=0;labelPosition=right;points=[];portConstraint=eastwest;strokeColor=inherit;fontFamily=Titillium Web;" parent="O3gvgiHZ3PhE2__OoeL2-19" vertex="1">
          <mxGeometry y="70" width="200" height="8" as="geometry" />
        </mxCell>
        <mxCell id="O3gvgiHZ3PhE2__OoeL2-22" value="&lt;div style=&quot;font-size: 16px;&quot;&gt;&lt;span style=&quot;background-color: initial;&quot;&gt;+ normalize()&lt;/span&gt;&lt;br&gt;&lt;/div&gt;" style="text;strokeColor=none;fillColor=none;align=left;verticalAlign=top;spacingLeft=4;spacingRight=4;overflow=hidden;rotatable=0;points=[[0,0.5],[1,0.5]];portConstraint=eastwest;whiteSpace=wrap;html=1;fontFamily=Titillium Web;" parent="O3gvgiHZ3PhE2__OoeL2-19" vertex="1">
          <mxGeometry y="78" width="200" height="42" as="geometry" />
        </mxCell>
        <mxCell id="jLTmovnZ-4I3dYf7ap1G-5" value="&lt;font style=&quot;font-size: 20px;&quot;&gt;Mesh&lt;/font&gt;" style="swimlane;fontStyle=1;align=center;verticalAlign=top;childLayout=stackLayout;horizontal=1;startSize=40;horizontalStack=0;resizeParent=1;resizeParentMax=0;resizeLast=0;collapsible=1;marginBottom=0;whiteSpace=wrap;html=1;fontFamily=Titillium Web;strokeWidth=2;" vertex="1" parent="1">
          <mxGeometry x="1505" y="-92" width="190" height="262" as="geometry">
            <mxRectangle x="1120" y="50" width="150" height="40" as="alternateBounds" />
          </mxGeometry>
        </mxCell>
        <mxCell id="jLTmovnZ-4I3dYf7ap1G-6" value="&lt;div style=&quot;font-size: 16px;&quot;&gt;+ spacing: MEnum(str)&lt;/div&gt;&lt;div style=&quot;font-size: 16px;&quot;&gt;+ center: MEnum(str)&lt;/div&gt;&lt;div style=&quot;font-size: 16px;&quot;&gt;+ quadrature: MEnum(str)&lt;/div&gt;&lt;div style=&quot;font-size: 16px;&quot;&gt;+ n_points: np.int32&lt;/div&gt;&lt;div style=&quot;font-size: 16px;&quot;&gt;+ dimensionality: np.int32&lt;/div&gt;&lt;div style=&quot;font-size: 16px;&quot;&gt;+ grid: np.int32&lt;/div&gt;&lt;div style=&quot;font-size: 16px;&quot;&gt;+ points: np.complex128&lt;/div&gt;&lt;div style=&quot;font-size: 16px;&quot;&gt;+ multiplicities: np.float64&lt;/div&gt;&lt;div style=&quot;font-size: 16px;&quot;&gt;+ weights: np.float64&lt;/div&gt;" style="text;strokeColor=none;fillColor=none;align=left;verticalAlign=top;spacingLeft=4;spacingRight=4;overflow=hidden;rotatable=0;points=[[0,0.5],[1,0.5]];portConstraint=eastwest;whiteSpace=wrap;html=1;fontFamily=Titillium Web;" vertex="1" parent="jLTmovnZ-4I3dYf7ap1G-5">
          <mxGeometry y="40" width="190" height="180" as="geometry" />
        </mxCell>
        <mxCell id="jLTmovnZ-4I3dYf7ap1G-7" value="" style="line;strokeWidth=2;fillColor=none;align=left;verticalAlign=middle;spacingTop=-1;spacingLeft=3;spacingRight=3;rotatable=0;labelPosition=right;points=[];portConstraint=eastwest;strokeColor=inherit;fontFamily=Titillium Web;" vertex="1" parent="jLTmovnZ-4I3dYf7ap1G-5">
          <mxGeometry y="220" width="190" height="8" as="geometry" />
        </mxCell>
        <mxCell id="jLTmovnZ-4I3dYf7ap1G-8" value="&lt;font style=&quot;font-size: 16px;&quot;&gt;+ normalize()&lt;/font&gt;" style="text;strokeColor=none;fillColor=none;align=left;verticalAlign=top;spacingLeft=4;spacingRight=4;overflow=hidden;rotatable=0;points=[[0,0.5],[1,0.5]];portConstraint=eastwest;whiteSpace=wrap;html=1;fontFamily=Titillium Web;" vertex="1" parent="jLTmovnZ-4I3dYf7ap1G-5">
          <mxGeometry y="228" width="190" height="34" as="geometry" />
        </mxCell>
        <mxCell id="jLTmovnZ-4I3dYf7ap1G-21" style="edgeStyle=orthogonalEdgeStyle;rounded=0;orthogonalLoop=1;jettySize=auto;html=1;exitX=0.5;exitY=0;exitDx=0;exitDy=0;strokeWidth=2;endArrow=block;endFill=0;" edge="1" parent="1" source="jLTmovnZ-4I3dYf7ap1G-17" target="jLTmovnZ-4I3dYf7ap1G-5">
          <mxGeometry relative="1" as="geometry" />
        </mxCell>
        <mxCell id="jLTmovnZ-4I3dYf7ap1G-17" value="&lt;font style=&quot;font-size: 20px;&quot;&gt;KMesh&lt;/font&gt;" style="swimlane;fontStyle=1;align=center;verticalAlign=top;childLayout=stackLayout;horizontal=1;startSize=40;horizontalStack=0;resizeParent=1;resizeParentMax=0;resizeLast=0;collapsible=1;marginBottom=0;whiteSpace=wrap;html=1;fillColor=#009999;fontColor=#ffffff;fontFamily=Titillium Web;strokeWidth=2;" vertex="1" parent="1">
          <mxGeometry x="1490" y="200" width="220" height="250" as="geometry">
            <mxRectangle x="495" y="560" width="120" height="40" as="alternateBounds" />
          </mxGeometry>
        </mxCell>
        <mxCell id="jLTmovnZ-4I3dYf7ap1G-18" value="&lt;span style=&quot;font-size: 16px;&quot;&gt;+ label: str&lt;/span&gt;&lt;div&gt;&lt;span style=&quot;font-size: 16px;&quot;&gt;+ offset: np.float64&lt;/span&gt;&lt;/div&gt;&lt;div&gt;&lt;span style=&quot;font-size: 16px;&quot;&gt;+ all_points: np.float64&lt;/span&gt;&lt;/div&gt;&lt;div&gt;&lt;span style=&quot;font-size: 16px;&quot;&gt;+ high_symmetry_points: JSON&lt;/span&gt;&lt;/div&gt;&lt;div&gt;&lt;span style=&quot;font-size: 16px;&quot;&gt;+ k_line_density: np.float64&lt;/span&gt;&lt;/div&gt;&lt;div&gt;&lt;span style=&quot;font-size: 16px;&quot;&gt;&lt;br&gt;&lt;/span&gt;&lt;/div&gt;" style="text;strokeColor=none;fillColor=none;align=left;verticalAlign=top;spacingLeft=4;spacingRight=4;overflow=hidden;rotatable=0;points=[[0,0.5],[1,0.5]];portConstraint=eastwest;whiteSpace=wrap;html=1;fontFamily=Titillium Web;" vertex="1" parent="jLTmovnZ-4I3dYf7ap1G-17">
          <mxGeometry y="40" width="220" height="110" as="geometry" />
        </mxCell>
        <mxCell id="jLTmovnZ-4I3dYf7ap1G-19" value="" style="line;strokeWidth=1;fillColor=none;align=left;verticalAlign=middle;spacingTop=-1;spacingLeft=3;spacingRight=3;rotatable=0;labelPosition=right;points=[];portConstraint=eastwest;strokeColor=inherit;fontFamily=Titillium Web;" vertex="1" parent="jLTmovnZ-4I3dYf7ap1G-17">
          <mxGeometry y="150" width="220" height="8" as="geometry" />
        </mxCell>
        <mxCell id="jLTmovnZ-4I3dYf7ap1G-20" value="&lt;div style=&quot;font-size: 16px;&quot;&gt;&lt;span style=&quot;background-color: initial;&quot;&gt;+ resolve_points_and_offset()&lt;/span&gt;&lt;/div&gt;&lt;div style=&quot;font-size: 16px;&quot;&gt;&lt;span style=&quot;background-color: initial;&quot;&gt;+ get_k_line_density()&lt;/span&gt;&lt;/div&gt;&lt;div style=&quot;font-size: 16px;&quot;&gt;&lt;span style=&quot;background-color: initial;&quot;&gt;+ resolve_k_line_density()&lt;/span&gt;&lt;/div&gt;&lt;div style=&quot;font-size: 16px;&quot;&gt;&lt;span style=&quot;background-color: initial;&quot;&gt;+ normalize()&lt;/span&gt;&lt;br&gt;&lt;/div&gt;" style="text;strokeColor=none;fillColor=none;align=left;verticalAlign=top;spacingLeft=4;spacingRight=4;overflow=hidden;rotatable=0;points=[[0,0.5],[1,0.5]];portConstraint=eastwest;whiteSpace=wrap;html=1;fontFamily=Titillium Web;" vertex="1" parent="jLTmovnZ-4I3dYf7ap1G-17">
          <mxGeometry y="158" width="220" height="92" as="geometry" />
        </mxCell>
        <mxCell id="jLTmovnZ-4I3dYf7ap1G-22" value="&lt;font style=&quot;font-size: 20px;&quot;&gt;KLinePath&lt;/font&gt;" style="swimlane;fontStyle=1;align=center;verticalAlign=top;childLayout=stackLayout;horizontal=1;startSize=40;horizontalStack=0;resizeParent=1;resizeParentMax=0;resizeLast=0;collapsible=1;marginBottom=0;whiteSpace=wrap;html=1;fillColor=#009999;fontColor=#ffffff;fontFamily=Titillium Web;strokeWidth=2;" vertex="1" parent="1">
          <mxGeometry x="1460" y="480.5" width="280" height="270" as="geometry">
            <mxRectangle x="495" y="560" width="120" height="40" as="alternateBounds" />
          </mxGeometry>
        </mxCell>
        <mxCell id="jLTmovnZ-4I3dYf7ap1G-23" value="&lt;span style=&quot;font-size: 16px;&quot;&gt;+&amp;nbsp;&lt;/span&gt;&lt;span style=&quot;font-size: 16px;&quot;&gt;high_symmetry_points_names&lt;/span&gt;&lt;span style=&quot;font-size: 16px;&quot;&gt;: str&lt;/span&gt;&lt;div&gt;&lt;span style=&quot;font-size: 16px;&quot;&gt;+&amp;nbsp;&lt;/span&gt;&lt;span style=&quot;font-size: 16px; background-color: initial;&quot;&gt;high_symmetry_points_values&lt;/span&gt;&lt;span style=&quot;font-size: 16px; background-color: initial;&quot;&gt;: np.float64&lt;/span&gt;&lt;/div&gt;&lt;div&gt;&lt;span style=&quot;font-size: 16px; background-color: initial;&quot;&gt;+ n_line_points: np.int32&lt;/span&gt;&lt;/div&gt;&lt;div&gt;&lt;span style=&quot;font-size: 16px; background-color: initial;&quot;&gt;+ points: np.float64&lt;/span&gt;&lt;/div&gt;" style="text;strokeColor=none;fillColor=none;align=left;verticalAlign=top;spacingLeft=4;spacingRight=4;overflow=hidden;rotatable=0;points=[[0,0.5],[1,0.5]];portConstraint=eastwest;whiteSpace=wrap;html=1;fontFamily=Titillium Web;" vertex="1" parent="jLTmovnZ-4I3dYf7ap1G-22">
          <mxGeometry y="40" width="280" height="110" as="geometry" />
        </mxCell>
        <mxCell id="jLTmovnZ-4I3dYf7ap1G-24" value="" style="line;strokeWidth=1;fillColor=none;align=left;verticalAlign=middle;spacingTop=-1;spacingLeft=3;spacingRight=3;rotatable=0;labelPosition=right;points=[];portConstraint=eastwest;strokeColor=inherit;fontFamily=Titillium Web;" vertex="1" parent="jLTmovnZ-4I3dYf7ap1G-22">
          <mxGeometry y="150" width="280" height="8" as="geometry" />
        </mxCell>
        <mxCell id="jLTmovnZ-4I3dYf7ap1G-25" value="&lt;div style=&quot;font-size: 16px;&quot;&gt;&lt;span style=&quot;background-color: initial;&quot;&gt;+ resolve_high_symmetry_path_values()&lt;/span&gt;&lt;/div&gt;&lt;div style=&quot;font-size: 16px;&quot;&gt;&lt;span style=&quot;background-color: initial;&quot;&gt;+ validate_high_symmetry_path()&lt;/span&gt;&lt;/div&gt;&lt;div style=&quot;&quot;&gt;&lt;span style=&quot;background-color: initial;&quot;&gt;&lt;span style=&quot;font-size: 16px;&quot;&gt;+ get_high_symmetry_path_norms()&lt;/span&gt;&lt;/span&gt;&lt;/div&gt;&lt;div style=&quot;&quot;&gt;&lt;span style=&quot;background-color: initial;&quot;&gt;&lt;span style=&quot;font-size: 16px;&quot;&gt;+ resolve_points()&lt;/span&gt;&lt;/span&gt;&lt;br&gt;&lt;/div&gt;&lt;div style=&quot;&quot;&gt;&lt;span style=&quot;background-color: initial;&quot;&gt;&lt;span style=&quot;font-size: 16px;&quot;&gt;+ normalize()&lt;/span&gt;&lt;/span&gt;&lt;/div&gt;" style="text;strokeColor=none;fillColor=none;align=left;verticalAlign=top;spacingLeft=4;spacingRight=4;overflow=hidden;rotatable=0;points=[[0,0.5],[1,0.5]];portConstraint=eastwest;whiteSpace=wrap;html=1;fontFamily=Titillium Web;" vertex="1" parent="jLTmovnZ-4I3dYf7ap1G-22">
          <mxGeometry y="158" width="280" height="112" as="geometry" />
        </mxCell>
        <mxCell id="jLTmovnZ-4I3dYf7ap1G-38" style="edgeStyle=orthogonalEdgeStyle;rounded=0;orthogonalLoop=1;jettySize=auto;html=1;exitX=0.5;exitY=0;exitDx=0;exitDy=0;strokeWidth=2;endArrow=block;endFill=0;" edge="1" parent="1" source="jLTmovnZ-4I3dYf7ap1G-26" target="O3gvgiHZ3PhE2__OoeL2-19">
          <mxGeometry relative="1" as="geometry" />
        </mxCell>
        <mxCell id="jLTmovnZ-4I3dYf7ap1G-26" value="&lt;font style=&quot;font-size: 20px;&quot;&gt;SelfConsistency&lt;/font&gt;" style="swimlane;fontStyle=1;align=center;verticalAlign=top;childLayout=stackLayout;horizontal=1;startSize=40;horizontalStack=0;resizeParent=1;resizeParentMax=0;resizeLast=0;collapsible=1;marginBottom=0;whiteSpace=wrap;html=1;fillColor=#009999;fontColor=#ffffff;fontFamily=Titillium Web;strokeWidth=2;" vertex="1" parent="1">
          <mxGeometry x="710" y="240" width="240" height="180" as="geometry">
            <mxRectangle x="495" y="560" width="120" height="40" as="alternateBounds" />
          </mxGeometry>
        </mxCell>
        <mxCell id="jLTmovnZ-4I3dYf7ap1G-27" value="&lt;div&gt;&lt;span style=&quot;font-size: 16px;&quot;&gt;+ scf_minimization_algorithm: str&lt;/span&gt;&lt;/div&gt;&lt;div&gt;&lt;span style=&quot;font-size: 16px;&quot;&gt;+ n_max_iteration: np.int32&lt;/span&gt;&lt;/div&gt;&lt;div&gt;&lt;span style=&quot;font-size: 16px;&quot;&gt;+&amp;nbsp;&lt;/span&gt;&lt;span style=&quot;font-size: 16px;&quot;&gt;threshold_change&lt;/span&gt;&lt;span style=&quot;font-size: 16px;&quot;&gt;: np.float64&lt;/span&gt;&lt;/div&gt;&lt;div&gt;&lt;span style=&quot;font-size: 16px;&quot;&gt;+&amp;nbsp;&lt;/span&gt;&lt;span style=&quot;font-size: 16px; background-color: initial;&quot;&gt;threshold_change_unit: str&lt;/span&gt;&lt;/div&gt;&lt;div&gt;&lt;span style=&quot;background-color: initial; color: rgba(0, 0, 0, 0); font-family: monospace; font-size: 0px; text-wrap: nowrap;&quot;&gt;+ %3CmxGraphModel%3E%3Croot%3E%3CmxCell%20id%3D%220%22%2F%3E%3CmxCell%20id%3D%221%22%20parent%3D%220%22%2F%3E%3CmxCell%20id%3D%222%22%20value%3D%22%26lt%3Bfont%20style%3D%26quot%3Bfont-size%3A%2020px%3B%26quot%3B%26gt%3BKMesh%26lt%3B%2Ffont%26gt%3B%22%20style%3D%22swimlane%3BfontStyle%3D1%3Balign%3Dcenter%3BverticalAlign%3Dtop%3BchildLayout%3DstackLayout%3Bhorizontal%3D1%3BstartSize%3D40%3BhorizontalStack%3D0%3BresizeParent%3D1%3BresizeParentMax%3D0%3BresizeLast%3D0%3Bcollapsible%3D1%3BmarginBottom%3D0%3BwhiteSpace%3Dwrap%3Bhtml%3D1%3BfillColor%3D%23009999%3BfontColor%3D%23ffffff%3BfontFamily%3DTitillium%20Web%3BstrokeWidth%3D2%3B%22%20vertex%3D%221%22%20parent%3D%221%22%3E%3CmxGeometry%20x%3D%221115%22%20y%3D%22291%22%20width%3D%22220%22%20height%3D%22250%22%20as%3D%22geometry%22%3E%3CmxRectangle%20x%3D%22495%22%20y%3D%22560%22%20width%3D%22120%22%20height%3D%2240%22%20as%3D%22alternateBounds%22%2F%3E%3C%2FmxGeometry%3E%3C%2FmxCell%3E%3CmxCell%20id%3D%223%22%20value%3D%22%26lt%3Bspan%20style%3D%26quot%3Bfont-size%3A%2016px%3B%26quot%3B%26gt%3B%2B%20label%3A%20str%26lt%3B%2Fspan%26gt%3B%26lt%3Bdiv%26gt%3B%26lt%3Bspan%20style%3D%26quot%3Bfont-size%3A%2016px%3B%26quot%3B%26gt%3B%2B%20offset%3A%20np.float64%26lt%3B%2Fspan%26gt%3B%26lt%3B%2Fdiv%26gt%3B%26lt%3Bdiv%26gt%3B%26lt%3Bspan%20style%3D%26quot%3Bfont-size%3A%2016px%3B%26quot%3B%26gt%3B%2B%20all_points%3A%20np.float64%26lt%3B%2Fspan%26gt%3B%26lt%3B%2Fdiv%26gt%3B%26lt%3Bdiv%26gt%3B%26lt%3Bspan%20style%3D%26quot%3Bfont-size%3A%2016px%3B%26quot%3B%26gt%3B%2B%20high_symmetry_points%3A%20JSON%26lt%3B%2Fspan%26gt%3B%26lt%3B%2Fdiv%26gt%3B%26lt%3Bdiv%26gt%3B%26lt%3Bspan%20style%3D%26quot%3Bfont-size%3A%2016px%3B%26quot%3B%26gt%3B%2B%20k_line_density%3A%20np.float64%26lt%3B%2Fspan%26gt%3B%26lt%3B%2Fdiv%26gt%3B%26lt%3Bdiv%26gt%3B%26lt%3Bspan%20style%3D%26quot%3Bfont-size%3A%2016px%3B%26quot%3B%26gt%3B%26lt%3Bbr%26gt%3B%26lt%3B%2Fspan%26gt%3B%26lt%3B%2Fdiv%26gt%3B%22%20style%3D%22text%3BstrokeColor%3Dnone%3BfillColor%3Dnone%3Balign%3Dleft%3BverticalAlign%3Dtop%3BspacingLeft%3D4%3BspacingRight%3D4%3Boverflow%3Dhidden%3Brotatable%3D0%3Bpoints%3D%5B%5B0%2C0.5%5D%2C%5B1%2C0.5%5D%5D%3BportConstraint%3Deastwest%3BwhiteSpace%3Dwrap%3Bhtml%3D1%3BfontFamily%3DTitillium%20Web%3B%22%20vertex%3D%221%22%20parent%3D%222%22%3E%3CmxGeometry%20y%3D%2240%22%20width%3D%22220%22%20height%3D%22110%22%20as%3D%22geometry%22%2F%3E%3C%2FmxCell%3E%3CmxCell%20id%3D%224%22%20value%3D%22%22%20style%3D%22line%3BstrokeWidth%3D1%3BfillColor%3Dnone%3Balign%3Dleft%3BverticalAlign%3Dmiddle%3BspacingTop%3D-1%3BspacingLeft%3D3%3BspacingRight%3D3%3Brotatable%3D0%3BlabelPosition%3Dright%3Bpoints%3D%5B%5D%3BportConstraint%3Deastwest%3BstrokeColor%3Dinherit%3BfontFamily%3DTitillium%20Web%3B%22%20vertex%3D%221%22%20parent%3D%222%22%3E%3CmxGeometry%20y%3D%22150%22%20width%3D%22220%22%20height%3D%228%22%20as%3D%22geometry%22%2F%3E%3C%2FmxCell%3E%3CmxCell%20id%3D%225%22%20value%3D%22%26lt%3Bdiv%20style%3D%26quot%3Bfont-size%3A%2016px%3B%26quot%3B%26gt%3B%26lt%3Bspan%20style%3D%26quot%3Bbackground-color%3A%20initial%3B%26quot%3B%26gt%3B%2B%20resolve_points_and_offset()%26lt%3B%2Fspan%26gt%3B%26lt%3B%2Fdiv%26gt%3B%26lt%3Bdiv%20style%3D%26quot%3Bfont-size%3A%2016px%3B%26quot%3B%26gt%3B%26lt%3Bspan%20style%3D%26quot%3Bbackground-color%3A%20initial%3B%26quot%3B%26gt%3B%2B%20get_k_line_density()%26lt%3B%2Fspan%26gt%3B%26lt%3B%2Fdiv%26gt%3B%26lt%3Bdiv%20style%3D%26quot%3Bfont-size%3A%2016px%3B%26quot%3B%26gt%3B%26lt%3Bspan%20style%3D%26quot%3Bbackground-color%3A%20initial%3B%26quot%3B%26gt%3B%2B%20resolve_k_line_density()%26lt%3B%2Fspan%26gt%3B%26lt%3B%2Fdiv%26gt%3B%26lt%3Bdiv%20style%3D%26quot%3Bfont-size%3A%2016px%3B%26quot%3B%26gt%3B%26lt%3Bspan%20style%3D%26quot%3Bbackground-color%3A%20initial%3B%26quot%3B%26gt%3B%2B%20normalize()%26lt%3B%2Fspan%26gt%3B%26lt%3Bbr%26gt%3B%26lt%3B%2Fdiv%26gt%3B%22%20style%3D%22text%3BstrokeColor%3Dnone%3BfillColor%3Dnone%3Balign%3Dleft%3BverticalAlign%3Dtop%3BspacingLeft%3D4%3BspacingRight%3D4%3Boverflow%3Dhidden%3Brotatable%3D0%3Bpoints%3D%5B%5B0%2C0.5%5D%2C%5B1%2C0.5%5D%5D%3BportConstraint%3Deastwest%3BwhiteSpace%3Dwrap%3Bhtml%3D1%3BfontFamily%3DTitillium%20Web%3B%22%20vertex%3D%221%22%20parent%3D%222%22%3E%3CmxGeometry%20y%3D%22158%22%20width%3D%22220%22%20height%3D%2292%22%20as%3D%22geometry%22%2F%3E%3C%2FmxCell%3E%3C%2Froot%3E%3C%2FmxGraphModel%3EK&lt;/span&gt;&lt;/div&gt;&lt;div&gt;&lt;span style=&quot;background-color: initial; color: rgba(0, 0, 0, 0); font-family: monospace; font-size: 0px; text-wrap: nowrap;&quot;&gt;&lt;br&gt;&lt;/span&gt;&lt;/div&gt;" style="text;strokeColor=none;fillColor=none;align=left;verticalAlign=top;spacingLeft=4;spacingRight=4;overflow=hidden;rotatable=0;points=[[0,0.5],[1,0.5]];portConstraint=eastwest;whiteSpace=wrap;html=1;fontFamily=Titillium Web;" vertex="1" parent="jLTmovnZ-4I3dYf7ap1G-26">
          <mxGeometry y="40" width="240" height="90" as="geometry" />
        </mxCell>
        <mxCell id="jLTmovnZ-4I3dYf7ap1G-28" value="" style="line;strokeWidth=1;fillColor=none;align=left;verticalAlign=middle;spacingTop=-1;spacingLeft=3;spacingRight=3;rotatable=0;labelPosition=right;points=[];portConstraint=eastwest;strokeColor=inherit;fontFamily=Titillium Web;" vertex="1" parent="jLTmovnZ-4I3dYf7ap1G-26">
          <mxGeometry y="130" width="240" height="8" as="geometry" />
        </mxCell>
        <mxCell id="jLTmovnZ-4I3dYf7ap1G-29" value="&lt;div style=&quot;font-size: 16px;&quot;&gt;&lt;span style=&quot;background-color: initial;&quot;&gt;+ normalize()&lt;/span&gt;&lt;br&gt;&lt;/div&gt;" style="text;strokeColor=none;fillColor=none;align=left;verticalAlign=top;spacingLeft=4;spacingRight=4;overflow=hidden;rotatable=0;points=[[0,0.5],[1,0.5]];portConstraint=eastwest;whiteSpace=wrap;html=1;fontFamily=Titillium Web;" vertex="1" parent="jLTmovnZ-4I3dYf7ap1G-26">
          <mxGeometry y="138" width="240" height="42" as="geometry" />
        </mxCell>
        <mxCell id="jLTmovnZ-4I3dYf7ap1G-40" style="edgeStyle=orthogonalEdgeStyle;rounded=0;orthogonalLoop=1;jettySize=auto;html=1;exitX=0.5;exitY=0;exitDx=0;exitDy=0;strokeWidth=2;endArrow=block;endFill=0;" edge="1" parent="1" source="jLTmovnZ-4I3dYf7ap1G-30" target="O3gvgiHZ3PhE2__OoeL2-19">
          <mxGeometry relative="1" as="geometry" />
        </mxCell>
        <mxCell id="jLTmovnZ-4I3dYf7ap1G-30" value="&lt;font style=&quot;font-size: 20px;&quot;&gt;KSpace&lt;/font&gt;" style="swimlane;fontStyle=1;align=center;verticalAlign=top;childLayout=stackLayout;horizontal=1;startSize=40;horizontalStack=0;resizeParent=1;resizeParentMax=0;resizeLast=0;collapsible=1;marginBottom=0;whiteSpace=wrap;html=1;fillColor=#009999;fontColor=#ffffff;fontFamily=Titillium Web;strokeWidth=2;" vertex="1" parent="1">
          <mxGeometry x="1100" y="240" width="270" height="170" as="geometry">
            <mxRectangle x="495" y="560" width="120" height="40" as="alternateBounds" />
          </mxGeometry>
        </mxCell>
        <mxCell id="jLTmovnZ-4I3dYf7ap1G-31" value="&lt;div&gt;&lt;span style=&quot;font-size: 16px;&quot;&gt;+ reciprocal_lattice_vectors: np.float64&lt;/span&gt;&lt;/div&gt;&lt;div&gt;&lt;span style=&quot;font-size: 16px;&quot;&gt;+ k_mesh: &lt;b&gt;KMesh&lt;/b&gt;&lt;/span&gt;&lt;/div&gt;&lt;div&gt;&lt;span style=&quot;font-size: 16px;&quot;&gt;+ k_line_path: &lt;b&gt;KLinePath&lt;/b&gt;&lt;/span&gt;&lt;span style=&quot;color: rgba(0, 0, 0, 0); font-family: monospace; font-size: 0px; text-wrap: nowrap; background-color: initial;&quot;&gt;%3CmxGraphModel%3E%3Croot%3E%3CmxCell%20id%3D%220%22%2F%3E%3CmxCell%20id%3D%221%22%20parent%3D%220%22%2F%3E%3CmxCell%20id%3D%222%22%20value%3D%22%26lt%3Bfont%20style%3D%26quot%3Bfont-size%3A%2020px%3B%26quot%3B%26gt%3BKMesh%26lt%3B%2Ffont%26gt%3B%22%20style%3D%22swimlane%3BfontStyle%3D1%3Balign%3Dcenter%3BverticalAlign%3Dtop%3BchildLayout%3DstackLayout%3Bhorizontal%3D1%3BstartSize%3D40%3BhorizontalStack%3D0%3BresizeParent%3D1%3BresizeParentMax%3D0%3BresizeLast%3D0%3Bcollapsible%3D1%3BmarginBottom%3D0%3BwhiteSpace%3Dwrap%3Bhtml%3D1%3BfillColor%3D%23009999%3BfontColor%3D%23ffffff%3BfontFamily%3DTitillium%20Web%3BstrokeWidth%3D2%3B%22%20vertex%3D%221%22%20parent%3D%221%22%3E%3CmxGeometry%20x%3D%221115%22%20y%3D%22291%22%20width%3D%22220%22%20height%3D%22250%22%20as%3D%22geometry%22%3E%3CmxRectangle%20x%3D%22495%22%20y%3D%22560%22%20width%3D%22120%22%20height%3D%2240%22%20as%3D%22alternateBounds%22%2F%3E%3C%2FmxGeometry%3E%3C%2FmxCell%3E%3CmxCell%20id%3D%223%22%20value%3D%22%26lt%3Bspan%20style%3D%26quot%3Bfont-size%3A%2016px%3B%26quot%3B%26gt%3B%2B%20label%3A%20str%26lt%3B%2Fspan%26gt%3B%26lt%3Bdiv%26gt%3B%26lt%3Bspan%20style%3D%26quot%3Bfont-size%3A%2016px%3B%26quot%3B%26gt%3B%2B%20offset%3A%20np.float64%26lt%3B%2Fspan%26gt%3B%26lt%3B%2Fdiv%26gt%3B%26lt%3Bdiv%26gt%3B%26lt%3Bspan%20style%3D%26quot%3Bfont-size%3A%2016px%3B%26quot%3B%26gt%3B%2B%20all_points%3A%20np.float64%26lt%3B%2Fspan%26gt%3B%26lt%3B%2Fdiv%26gt%3B%26lt%3Bdiv%26gt%3B%26lt%3Bspan%20style%3D%26quot%3Bfont-size%3A%2016px%3B%26quot%3B%26gt%3B%2B%20high_symmetry_points%3A%20JSON%26lt%3B%2Fspan%26gt%3B%26lt%3B%2Fdiv%26gt%3B%26lt%3Bdiv%26gt%3B%26lt%3Bspan%20style%3D%26quot%3Bfont-size%3A%2016px%3B%26quot%3B%26gt%3B%2B%20k_line_density%3A%20np.float64%26lt%3B%2Fspan%26gt%3B%26lt%3B%2Fdiv%26gt%3B%26lt%3Bdiv%26gt%3B%26lt%3Bspan%20style%3D%26quot%3Bfont-size%3A%2016px%3B%26quot%3B%26gt%3B%26lt%3Bbr%26gt%3B%26lt%3B%2Fspan%26gt%3B%26lt%3B%2Fdiv%26gt%3B%22%20style%3D%22text%3BstrokeColor%3Dnone%3BfillColor%3Dnone%3Balign%3Dleft%3BverticalAlign%3Dtop%3BspacingLeft%3D4%3BspacingRight%3D4%3Boverflow%3Dhidden%3Brotatable%3D0%3Bpoints%3D%5B%5B0%2C0.5%5D%2C%5B1%2C0.5%5D%5D%3BportConstraint%3Deastwest%3BwhiteSpace%3Dwrap%3Bhtml%3D1%3BfontFamily%3DTitillium%20Web%3B%22%20vertex%3D%221%22%20parent%3D%222%22%3E%3CmxGeometry%20y%3D%2240%22%20width%3D%22220%22%20height%3D%22110%22%20as%3D%22geometry%22%2F%3E%3C%2FmxCell%3E%3CmxCell%20id%3D%224%22%20value%3D%22%22%20style%3D%22line%3BstrokeWidth%3D1%3BfillColor%3Dnone%3Balign%3Dleft%3BverticalAlign%3Dmiddle%3BspacingTop%3D-1%3BspacingLeft%3D3%3BspacingRight%3D3%3Brotatable%3D0%3BlabelPosition%3Dright%3Bpoints%3D%5B%5D%3BportConstraint%3Deastwest%3BstrokeColor%3Dinherit%3BfontFamily%3DTitillium%20Web%3B%22%20vertex%3D%221%22%20parent%3D%222%22%3E%3CmxGeometry%20y%3D%22150%22%20width%3D%22220%22%20height%3D%228%22%20as%3D%22geometry%22%2F%3E%3C%2FmxCell%3E%3CmxCell%20id%3D%225%22%20value%3D%22%26lt%3Bdiv%20style%3D%26quot%3Bfont-size%3A%2016px%3B%26quot%3B%26gt%3B%26lt%3Bspan%20style%3D%26quot%3Bbackground-color%3A%20initial%3B%26quot%3B%26gt%3B%2B%20resolve_points_and_offset()%26lt%3B%2Fspan%26gt%3B%26lt%3B%2Fdiv%26gt%3B%26lt%3Bdiv%20style%3D%26quot%3Bfont-size%3A%2016px%3B%26quot%3B%26gt%3B%26lt%3Bspan%20style%3D%26quot%3Bbackground-color%3A%20initial%3B%26quot%3B%26gt%3B%2B%20get_k_line_density()%26lt%3B%2Fspan%26gt%3B%26lt%3B%2Fdiv%26gt%3B%26lt%3Bdiv%20style%3D%26quot%3Bfont-size%3A%2016px%3B%26quot%3B%26gt%3B%26lt%3Bspan%20style%3D%26quot%3Bbackground-color%3A%20initial%3B%26quot%3B%26gt%3B%2B%20resolve_k_line_density()%26lt%3B%2Fspan%26gt%3B%26lt%3B%2Fdiv%26gt%3B%26lt%3Bdiv%20style%3D%26quot%3Bfont-size%3A%2016px%3B%26quot%3B%26gt%3B%26lt%3Bspan%20style%3D%26quot%3Bbackground-color%3A%20initial%3B%26quot%3B%26gt%3B%2B%20normalize()%26lt%3B%2Fspan%26gt%3B%26lt%3Bbr%26gt%3B%26lt%3B%2Fdiv%26gt%3B%22%20style%3D%22text%3BstrokeColor%3Dnone%3BfillColor%3Dnone%3Balign%3Dleft%3BverticalAlign%3Dtop%3BspacingLeft%3D4%3BspacingRight%3D4%3Boverflow%3Dhidden%3Brotatable%3D0%3Bpoints%3D%5B%5B0%2C0.5%5D%2C%5B1%2C0.5%5D%5D%3BportConstraint%3Deastwest%3BwhiteSpace%3Dwrap%3Bhtml%3D1%3BfontFamily%3DTitillium%20Web%3B%22%20vertex%3D%221%22%20parent%3D%222%22%3E%3CmxGeometry%20y%3D%22158%22%20width%3D%22220%22%20height%3D%2292%22%20as%3D%22geometry%22%2F%3E%3C%2FmxCell%3E%3C%2Froot%3E%3C%2FmxGraphModel%3EK&lt;/span&gt;&lt;/div&gt;" style="text;strokeColor=none;fillColor=none;align=left;verticalAlign=top;spacingLeft=4;spacingRight=4;overflow=hidden;rotatable=0;points=[[0,0.5],[1,0.5]];portConstraint=eastwest;whiteSpace=wrap;html=1;fontFamily=Titillium Web;" vertex="1" parent="jLTmovnZ-4I3dYf7ap1G-30">
          <mxGeometry y="40" width="270" height="70" as="geometry" />
        </mxCell>
        <mxCell id="jLTmovnZ-4I3dYf7ap1G-32" value="" style="line;strokeWidth=1;fillColor=none;align=left;verticalAlign=middle;spacingTop=-1;spacingLeft=3;spacingRight=3;rotatable=0;labelPosition=right;points=[];portConstraint=eastwest;strokeColor=inherit;fontFamily=Titillium Web;" vertex="1" parent="jLTmovnZ-4I3dYf7ap1G-30">
          <mxGeometry y="110" width="270" height="8" as="geometry" />
        </mxCell>
        <mxCell id="jLTmovnZ-4I3dYf7ap1G-33" value="&lt;div style=&quot;font-size: 16px;&quot;&gt;&lt;span style=&quot;background-color: initial;&quot;&gt;+ resolve_&lt;/span&gt;reciprocal_lattice_vectors&lt;span style=&quot;background-color: initial;&quot;&gt;()&lt;/span&gt;&lt;/div&gt;&lt;div style=&quot;font-size: 16px;&quot;&gt;&lt;span style=&quot;background-color: initial;&quot;&gt;+ normalize()&lt;/span&gt;&lt;br&gt;&lt;/div&gt;" style="text;strokeColor=none;fillColor=none;align=left;verticalAlign=top;spacingLeft=4;spacingRight=4;overflow=hidden;rotatable=0;points=[[0,0.5],[1,0.5]];portConstraint=eastwest;whiteSpace=wrap;html=1;fontFamily=Titillium Web;" vertex="1" parent="jLTmovnZ-4I3dYf7ap1G-30">
          <mxGeometry y="118" width="270" height="52" as="geometry" />
        </mxCell>
        <mxCell id="jLTmovnZ-4I3dYf7ap1G-39" style="edgeStyle=orthogonalEdgeStyle;rounded=0;orthogonalLoop=1;jettySize=auto;html=1;exitX=0.5;exitY=0;exitDx=0;exitDy=0;strokeWidth=2;endArrow=block;endFill=0;" edge="1" parent="1" source="jLTmovnZ-4I3dYf7ap1G-34" target="O3gvgiHZ3PhE2__OoeL2-19">
          <mxGeometry relative="1" as="geometry" />
        </mxCell>
        <mxCell id="jLTmovnZ-4I3dYf7ap1G-34" value="&lt;font style=&quot;font-size: 20px;&quot;&gt;BasisSet&lt;/font&gt;" style="swimlane;fontStyle=1;align=center;verticalAlign=top;childLayout=stackLayout;horizontal=1;startSize=40;horizontalStack=0;resizeParent=1;resizeParentMax=0;resizeLast=0;collapsible=1;marginBottom=0;whiteSpace=wrap;html=1;fillColor=#009999;fontColor=#ffffff;fontFamily=Titillium Web;strokeWidth=2;" vertex="1" parent="1">
          <mxGeometry x="970" y="240" width="110" height="110" as="geometry">
            <mxRectangle x="495" y="560" width="120" height="40" as="alternateBounds" />
          </mxGeometry>
        </mxCell>
        <mxCell id="jLTmovnZ-4I3dYf7ap1G-35" value="&lt;div&gt;&lt;br&gt;&lt;/div&gt;&lt;div&gt;&lt;br&gt;&lt;/div&gt;" style="text;strokeColor=none;fillColor=none;align=left;verticalAlign=top;spacingLeft=4;spacingRight=4;overflow=hidden;rotatable=0;points=[[0,0.5],[1,0.5]];portConstraint=eastwest;whiteSpace=wrap;html=1;fontFamily=Titillium Web;" vertex="1" parent="jLTmovnZ-4I3dYf7ap1G-34">
          <mxGeometry y="40" width="110" height="20" as="geometry" />
        </mxCell>
        <mxCell id="jLTmovnZ-4I3dYf7ap1G-36" value="" style="line;strokeWidth=1;fillColor=none;align=left;verticalAlign=middle;spacingTop=-1;spacingLeft=3;spacingRight=3;rotatable=0;labelPosition=right;points=[];portConstraint=eastwest;strokeColor=inherit;fontFamily=Titillium Web;" vertex="1" parent="jLTmovnZ-4I3dYf7ap1G-34">
          <mxGeometry y="60" width="110" height="8" as="geometry" />
        </mxCell>
        <mxCell id="jLTmovnZ-4I3dYf7ap1G-37" value="&lt;div style=&quot;font-size: 16px;&quot;&gt;&lt;span style=&quot;background-color: initial;&quot;&gt;+ normalize()&lt;/span&gt;&lt;br&gt;&lt;/div&gt;" style="text;strokeColor=none;fillColor=none;align=left;verticalAlign=top;spacingLeft=4;spacingRight=4;overflow=hidden;rotatable=0;points=[[0,0.5],[1,0.5]];portConstraint=eastwest;whiteSpace=wrap;html=1;fontFamily=Titillium Web;" vertex="1" parent="jLTmovnZ-4I3dYf7ap1G-34">
          <mxGeometry y="68" width="110" height="42" as="geometry" />
        </mxCell>
        <mxCell id="jLTmovnZ-4I3dYf7ap1G-41" value="&lt;font face=&quot;Titillium Web&quot;&gt;k_line_path&lt;/font&gt;" style="edgeStyle=orthogonalEdgeStyle;rounded=0;orthogonalLoop=1;jettySize=auto;html=1;exitX=1;exitY=0.5;exitDx=0;exitDy=0;strokeWidth=2;endArrow=none;endFill=0;startArrow=diamond;startFill=1;" edge="1" parent="1" source="jLTmovnZ-4I3dYf7ap1G-31" target="jLTmovnZ-4I3dYf7ap1G-23">
          <mxGeometry relative="1" as="geometry" />
        </mxCell>
        <mxCell id="jLTmovnZ-4I3dYf7ap1G-42" value="&lt;font face=&quot;Titillium Web&quot;&gt;k_mesh&lt;/font&gt;" style="edgeStyle=orthogonalEdgeStyle;rounded=0;orthogonalLoop=1;jettySize=auto;html=1;exitX=1;exitY=0.5;exitDx=0;exitDy=0;endArrow=none;endFill=0;strokeWidth=2;startArrow=diamond;startFill=1;" edge="1" parent="1" source="jLTmovnZ-4I3dYf7ap1G-31" target="jLTmovnZ-4I3dYf7ap1G-18">
          <mxGeometry relative="1" as="geometry" />
        </mxCell>
      </root>
    </mxGraphModel>
  </diagram>
</mxfile>
